#!OML:ASF F:\VICON\USERDATA\INSTALL\rory3\rory3.ASF
:FULLY-SPECIFIED
:DEGREES
4826
root 1.14668 18.7444 1.8545 -2.28609 -1.51506 -5.32454
lowerback 6.90885 4.42406 -2.21112
upperback 0.421595 5.60723 -2.97106
thorax -3.33795 2.79767 -2.37633
lowerneck -20.3874 -3.49232 -7.18454
upperneck 4.86924 -3.88446 10.1422
head 5.0901 -1.3245 3.9961
rclavicle 2.08724e-014 -1.59028e-014
rhumerus 21.0403 -28.4097 -57.8382
rradius 72.4672
rwrist 15.7401
rhand -68.1682 362.545
rfingers 7.12502
rthumb -39.8875 -22.7153
lclavicle 2.08724e-014 -1.59028e-014
lhumerus -23.9987 -0.208472 54.06
lradius 38.668
lwrist -4.53478
lhand -23.7516 29.0594
lfingers 7.12502
lthumb 2.71727 59.0218
rfemur -5.04193 5.9324 14.9279
rtibia 32.8067
rfoot -14.2267 -38.0891
rtoes 3.12588
lfemur -10.7278 -5.51501 -9.97297
ltibia 28.5599
lfoot -12.075 9.99501
ltoes -12.1775
4827
root 1.1727 18.7518 1.86842 -2.29504 -1.19765 -5.40694
lowerback 6.93876 4.52593 -2.38764
upperback 0.391635 5.72341 -3.04852
thorax -3.39268 2.85704 -2.37511
lowerneck -20.9244 -3.63907 -7.06409
upperneck 5.13895 -4.08302 9.9976
head 5.26822 -1.41044 3.90835
rclavicle 1.6201e-014 0
rhumerus 22.1314 -28.2867 -57.1789
rradius 72.0884
rwrist 16.1271
rhand -67.7861 362.348
rfingers 7.12502
rthumb -39.5277 -23.0193
lclavicle 1.6201e-014 0
lhumerus -24.2577 -0.1023 54.0174
lradius 38.3757
lwrist -4.67315
lhand -23.4192 28.974
lfingers 7.12502
lthumb 3.03828 58.9321
rfemur -5.01038 5.83229 14.9088
rtibia 32.8716
rfoot -13.69 -38.1595
rtoes 3.2402
lfemur -10.7018 -5.67048 -9.98918
ltibia 28.4382
lfoot -12.0542 9.89897
ltoes -12.5368
4828
root 1.19755 18.7605 1.88088 -2.30355 -0.824404 -5.563
lowerback 7.0154 4.58802 -2.4631
upperback 0.296469 5.79086 -3.10487
thorax -3.53461 2.89078 -2.41136
lowerneck -21.2072 -3.74588 -7.02404
upperneck 5.36994 -4.23171 9.9565
head 5.39546 -1.47396 3.8723
rclavicle 4.96962e-016 -6.36111e-015
rhumerus 23.0025 -27.941 -56.1847
rradius 71.6454
rwrist 16.6027
rhand -67.0488 360.788
rfingers 7.12502
rthumb -38.8328 -24.7792
lclavicle 4.96962e-016 -6.36111e-015
lhumerus -24.7024 -0.0420197 53.9654
lradius 38.1836
lwrist -4.80166
lhand -23.1467 28.9402
lfingers 7.12502
lthumb 3.30141 58.8943
rfemur -4.98326 5.72519 14.9662
rtibia 32.9367
rfoot -13.2958 -38.3115
rtoes 3.29421
lfemur -10.6476 -5.86112 -9.91228
ltibia 28.2194
lfoot -12.0142 9.76386
ltoes -12.6434
4829
root 1.22444 18.7752 1.89638 -2.27373 -0.392597 -5.63344
lowerback 6.98274 4.62892 -2.53336
upperback 0.174427 5.83313 -3.20606
thorax -3.63884 2.91208 -2.48586
lowerneck -21.1029 -3.78234 -7.06342
upperneck 5.28814 -4.27712 10.0223
head 5.36054 -1.49554 3.89487
rclavicle 1.6201e-014 -3.65764e-014
rhumerus 23.7071 -27.5624 -54.9792
rradius 71.1827
rwrist 16.8489
rhand -66.6634 362.263
rfingers 7.12502
rthumb -38.4693 -23.4067
lclavicle 1.6201e-014 -3.65764e-014
lhumerus -25.2266 0.0783676 53.8914
lradius 37.9753
lwrist -5.00294
lhand -22.8422 28.9296
lfingers 7.12502
lthumb 3.59548 58.879
rfemur -5.07169 5.51151 14.901
rtibia 32.991
rfoot -11.3819 -38.7854
rtoes 2.02748
lfemur -10.5767 -6.17175 -9.94349
ltibia 27.9084
lfoot -11.9077 9.7086
ltoes -12.5098
4830
root 1.25614 18.7956 1.92159 -2.30477 -0.0909315 -5.6283
lowerback 6.85822 4.71477 -2.66361
upperback 0.204486 5.9408 -3.30192
thorax -3.53899 2.96738 -2.51042
lowerneck -21.29 -3.82772 -7.04758
upperneck 5.10667 -4.31094 9.9817
head 5.33317 -1.51098 3.87428
rclavicle 1.17283e-014 -6.36111e-015
rhumerus 24.7291 -27.3815 -53.8314
rradius 70.6322
rwrist 17.0855
rhand -66.1767 366.311
rfingers 7.12502
rthumb -38.0099 -19.4851
lclavicle 1.17283e-014 -6.36111e-015
lhumerus -25.4918 0.413716 53.8525
lradius 37.5767
lwrist -5.35445
lhand -22.2846 28.3852
lfingers 7.12502
lthumb 4.13391 58.3248
rfemur -5.08568 5.40461 14.7294
rtibia 33.0195
rfoot -8.9874 -39.1428
rtoes 1.71396
lfemur -10.3078 -6.53364 -10.1053
ltibia 27.5257
lfoot -11.7939 9.81628
ltoes -12.3554
4831
root 1.28574 18.814 1.94543 -2.35555 0.236461 -5.63108
lowerback 6.80476 4.81055 -2.80576
upperback 0.245994 6.05839 -3.38466
thorax -3.46953 3.02752 -2.52176
lowerneck -21.6217 -3.94955 -7.16596
upperneck 5.03416 -4.42684 10.0842
head 5.37705 -1.55326 3.91289
rclavicle -1.98785e-015 1.59028e-015
rhumerus 25.8044 -27.3344 -52.5851
rradius 70.0156
rwrist 17.6355
rhand -65.3825 368.641
rfingers 7.12502
rthumb -37.2594 -17.3555
lclavicle -1.98785e-015 1.59028e-015
lhumerus -25.711 0.485789 53.8578
lradius 37.2115
lwrist -5.53555
lhand -21.807 27.6984
lfingers 7.12502
lthumb 4.5951 57.6286
rfemur -4.92642 5.40091 14.5626
rtibia 33.034
rfoot -8.58532 -39.1304
rtoes 3.84923
lfemur -10.0316 -6.86835 -10.2485
ltibia 27.1151
lfoot -11.668 9.85242
ltoes -12.0514
4832
root 1.31171 18.8289 1.96027 -2.3405 0.671645 -5.64124
lowerback 6.83932 4.88967 -2.9185
upperback 0.136995 6.14376 -3.5154
thorax -3.59806 3.07063 -2.61385
lowerneck -21.5448 -4.01963 -7.26299
upperneck 4.90541 -4.51259 10.2948
head 5.34186 -1.58452 3.98724
rclavicle -1.10325e-013 3.02153e-014
rhumerus 26.4424 -27.1939 -50.9958
rradius 69.361
rwrist 18.228
rhand -64.9601 372.156
rfingers 7.12502
rthumb -36.8599 -13.9447
lclavicle -1.10325e-013 3.02153e-014
lhumerus -25.9345 0.29261 53.8251
lradius 36.7763
lwrist -5.78574
lhand -21.6551 27.2079
lfingers 7.12502
lthumb 4.74177 57.1349
rfemur -4.79977 5.40656 14.4373
rtibia 33.0234
rfoot -8.8532 -39.0941
rtoes 5.26588
lfemur -9.93044 -7.21655 -10.3515
ltibia 26.7359
lfoot -11.5169 9.77945
ltoes -11.7424
4833
root 1.33685 18.8434 1.97662 -2.27152 1.11087 -5.73092
lowerback 6.8421 4.97371 -2.92495
upperback -0.0251547 6.24374 -3.64254
thorax -3.75284 3.11945 -2.7625
lowerneck -21.2374 -4.06277 -7.25058
upperneck 4.63548 -4.5832 10.4069
head 5.22003 -1.62199 4.01348
rclavicle -1.88845e-014 3.65764e-014
rhumerus 26.9621 -27.1422 -49.323
rradius 68.66
rwrist 18.8573
rhand -64.5285 375.197
rfingers 7.12502
rthumb -36.4514 -11.0071
lclavicle -1.88845e-014 3.65764e-014
lhumerus -26.0841 0.295798 53.7606
lradius 36.2733
lwrist -6.43724
lhand -21.4921 26.4271
lfingers 7.12502
lthumb 4.89921 56.3505
rfemur -4.76235 5.38815 14.4116
rtibia 32.9707
rfoot -8.71649 -39.2162
rtoes 5.67899
lfemur -9.92011 -7.56653 -10.3496
ltibia 26.4256
lfoot -11.3783 9.68113
ltoes -11.3587
